<svg width="18" height="18" viewBox="0 0 18 18" fill="none" xmlns="http://www.w3.org/2000/svg">
<g clip-path="url(#clip0)">
<path d="M15.36 2.63721C13.6589 0.936152 11.4023 0 8.9972 0C6.59213 0 4.33547 0.936152 2.63441 2.63721C-0.653541 5.92516 -0.88187 11.1882 2.06739 14.7387C1.77817 15.3209 1.3139 15.9983 0.625107 16.337C0.294028 16.5006 0.107559 16.8545 0.164641 17.2199C0.221724 17.5852 0.503331 17.8706 0.868658 17.9277C1.03991 17.9543 1.28346 17.981 1.58029 17.981C2.37564 17.981 3.54773 17.7945 4.74646 16.9307C6.08219 17.6499 7.5435 18 8.99339 18C11.3224 18 13.6285 17.0981 15.3638 15.3628C17.0649 13.6617 18.001 11.4051 18.001 9C18.001 6.59493 17.061 4.33827 15.36 2.63721ZM14.6331 14.6359C12.0644 17.2047 8.08769 17.7146 4.95957 15.8765C4.75407 15.7548 4.4991 15.7928 4.33547 15.9564C4.32024 15.9641 4.30502 15.9755 4.29361 15.9869C3.26232 16.786 2.25005 16.9535 1.58029 16.9535H1.57648C2.349 16.3903 2.8361 15.5531 3.12151 14.9023C3.16718 14.792 3.17479 14.6778 3.14815 14.5712C3.13673 14.4685 3.09487 14.3658 3.02257 14.282C0.236946 11.1349 0.381555 6.33996 3.35745 3.36406C6.46654 0.254968 11.5241 0.254968 14.6293 3.36406C17.7422 6.47315 17.7422 11.5269 14.6331 14.6359Z" fill="#178776"/>
<path d="M8.99548 9.63159C9.34437 9.63159 9.62719 9.34876 9.62719 8.99988C9.62719 8.65099 9.34437 8.36816 8.99548 8.36816C8.6466 8.36816 8.36377 8.65099 8.36377 8.99988C8.36377 9.34876 8.6466 9.63159 8.99548 9.63159Z" fill="#178776"/>
<path d="M12.2533 9.63159C12.6022 9.63159 12.885 9.34876 12.885 8.99988C12.885 8.65099 12.6022 8.36816 12.2533 8.36816C11.9044 8.36816 11.6216 8.65099 11.6216 8.99988C11.6216 9.34876 11.9044 9.63159 12.2533 9.63159Z" fill="#178776"/>
<path d="M5.73816 9.63159C6.08704 9.63159 6.36987 9.34876 6.36987 8.99988C6.36987 8.65099 6.08704 8.36816 5.73816 8.36816C5.38927 8.36816 5.10645 8.65099 5.10645 8.99988C5.10645 9.34876 5.38927 9.63159 5.73816 9.63159Z" fill="#178776"/>
</g>
<defs>
<clipPath id="clip0">
<rect width="18" height="18" fill="white"/>
</clipPath>
</defs>
</svg>
