<svg width="20" height="20" viewBox="0 0 20 20" fill="none" xmlns="http://www.w3.org/2000/svg">
<g clip-path="url(#clip0)">
<path d="M17.0659 2.93023C15.1758 1.04017 12.6684 0 9.99613 0C7.32383 0 4.81643 1.04017 2.92636 2.93023C-0.726916 6.58351 -0.980616 12.4313 2.29634 16.3763C1.97499 17.0233 1.45913 17.7759 0.693803 18.1522C0.325939 18.334 0.11875 18.7273 0.182175 19.1332C0.2456 19.5391 0.558497 19.8562 0.964417 19.9197C1.15469 19.9493 1.4253 19.9789 1.75511 19.9789C2.63884 19.9789 3.94116 19.7717 5.27309 18.8118C6.75723 19.611 8.38091 20 9.9919 20C12.5796 20 15.142 18.9979 17.0701 17.0698C18.9602 15.1797 20.0004 12.6723 20.0004 10C20.0004 7.3277 18.956 4.8203 17.0659 2.93023ZM16.2583 16.2622C13.4042 19.1163 8.98556 19.6829 5.50987 17.6406C5.28154 17.5053 4.99824 17.5476 4.81643 17.7294C4.79951 17.7378 4.7826 17.7505 4.76992 17.7632C3.62404 18.6512 2.4993 18.8372 1.75511 18.8372H1.75089C2.60924 18.2114 3.15046 17.2812 3.46759 16.5581C3.51833 16.4355 3.52679 16.3087 3.49719 16.1903C3.4845 16.0761 3.43799 15.9619 3.35765 15.8689C0.262514 12.3721 0.42319 7.0444 3.72975 3.73784C7.18429 0.283298 12.8037 0.283298 16.2541 3.73784C19.7128 7.19239 19.7128 12.8076 16.2583 16.2622Z" fill="black"/>
<path d="M9.99536 10.7021C10.383 10.7021 10.6973 10.3879 10.6973 10.0002C10.6973 9.61259 10.383 9.29834 9.99536 9.29834C9.60771 9.29834 9.29346 9.61259 9.29346 10.0002C9.29346 10.3879 9.60771 10.7021 9.99536 10.7021Z" fill="black"/>
<path d="M13.6145 10.7021C14.0021 10.7021 14.3164 10.3879 14.3164 10.0002C14.3164 9.61259 14.0021 9.29834 13.6145 9.29834C13.2268 9.29834 12.9126 9.61259 12.9126 10.0002C12.9126 10.3879 13.2268 10.7021 13.6145 10.7021Z" fill="black"/>
<path d="M6.37524 10.7021C6.76289 10.7021 7.07714 10.3879 7.07714 10.0002C7.07714 9.61259 6.76289 9.29834 6.37524 9.29834C5.98759 9.29834 5.67334 9.61259 5.67334 10.0002C5.67334 10.3879 5.98759 10.7021 6.37524 10.7021Z" fill="black"/>
</g>
<defs>
<clipPath id="clip0">
<rect width="20" height="20" fill="white"/>
</clipPath>
</defs>
</svg>
