<svg width="21" height="21" viewBox="0 0 21 21" fill="none" xmlns="http://www.w3.org/2000/svg">
<g clip-path="url(#clip0)">
<path d="M10.5 21C16.299 21 21 16.299 21 10.5C21 4.70102 16.299 0 10.5 0C4.70102 0 0 4.70102 0 10.5C0 16.299 4.70102 21 10.5 21Z" fill="#FFC10E"/>
<path d="M16.9781 10.5068C16.9191 14.0826 14.0752 16.9262 10.4994 16.9852C6.92346 17.0442 4.07852 13.9934 4.02096 10.5068C4.01219 9.97277 3.18319 9.97192 3.19196 10.5068C3.25843 14.5355 6.47061 17.7477 10.4993 17.8142C14.5284 17.8806 17.7421 14.4355 17.8071 10.5068C17.8159 9.97192 16.9869 9.97277 16.9781 10.5068Z" fill="#333333"/>
<path d="M7.30847 8.5271C8.21922 8.5271 8.95752 7.7888 8.95752 6.87805C8.95752 5.96731 8.21922 5.229 7.30847 5.229C6.39773 5.229 5.65942 5.96731 5.65942 6.87805C5.65942 7.7888 6.39773 8.5271 7.30847 8.5271Z" fill="#333333"/>
<path d="M13.5441 8.5271C14.4548 8.5271 15.1931 7.7888 15.1931 6.87805C15.1931 5.96731 14.4548 5.229 13.5441 5.229C12.6333 5.229 11.895 5.96731 11.895 6.87805C11.895 7.7888 12.6333 8.5271 13.5441 8.5271Z" fill="#333333"/>
</g>
<defs>
<clipPath id="clip0">
<rect width="21" height="21" fill="white"/>
</clipPath>
</defs>
</svg>
