<svg width="18" height="18" viewBox="0 0 18 18" fill="none" xmlns="http://www.w3.org/2000/svg">
<path d="M8.69507 16.9686H4.00024C2.72435 16.9686 1.68912 15.9295 1.68912 14.6575V3.34253C1.68912 2.06664 2.72817 1.03141 4.00024 1.03141H8.77147C9.05797 1.03141 9.28717 0.802207 9.28717 0.515705C9.28717 0.229202 9.05797 0 8.77147 0H4.00024C2.15517 0 0.657715 1.50127 0.657715 3.34253V14.6575C0.657715 16.5025 2.15899 18 4.00024 18H8.69507C8.98157 18 9.21077 17.7708 9.21077 17.4843C9.21077 17.1978 8.97775 16.9686 8.69507 16.9686Z" fill="#178776"/>
<path d="M17.191 8.63696L13.9134 5.35937C13.711 5.1569 13.3863 5.1569 13.1838 5.35937C12.9813 5.56183 12.9813 5.88653 13.1838 6.08899L15.5828 8.48797H5.11971C4.83321 8.48797 4.604 8.71718 4.604 9.00368C4.604 9.29018 4.83321 9.51938 5.11971 9.51938H15.5828L13.1838 11.9184C12.9813 12.1208 12.9813 12.4455 13.1838 12.648C13.2831 12.7473 13.4168 12.8008 13.5467 12.8008C13.6766 12.8008 13.8103 12.7511 13.9096 12.648L17.1872 9.3704C17.3935 9.16412 17.3935 8.8356 17.191 8.63696Z" fill="#178776"/>
</svg>
