<svg width="18" height="16" viewBox="0 0 18 16" fill="none" xmlns="http://www.w3.org/2000/svg">
<path d="M15.7799 0.813965H2.2201C0.997924 0.813965 0 1.69769 0 2.78739V10.4319C0 11.5183 0.994186 12.4053 2.2201 12.4053H8.49543V14.2891H5.36711C5.08679 14.2891 4.86254 14.4884 4.86254 14.7376C4.86254 14.9867 5.08679 15.1861 5.36711 15.1861H12.6329C12.9132 15.1861 13.1375 14.9867 13.1375 14.7376C13.1375 14.4884 12.9132 14.2891 12.6329 14.2891H9.50457V12.4053H15.7799C17.0021 12.4053 18 11.5216 18 10.4319V2.78739C18 1.69769 17.0058 0.813965 15.7799 0.813965ZM2.2201 1.71097H15.7836C16.4489 1.71097 16.9946 2.1927 16.9946 2.78739V9.17609H1.00914V2.78739C1.00914 2.1927 1.55108 1.71097 2.2201 1.71097ZM15.7799 11.5083H2.2201C1.55482 11.5083 1.00914 11.0266 1.00914 10.4319V10.0731H16.9909V10.4319C16.9909 11.0233 16.4489 11.5083 15.7799 11.5083Z" fill="#178776"/>
</svg>
