<svg width="20" height="20" viewBox="0 0 20 20" fill="none" xmlns="http://www.w3.org/2000/svg">
<g clip-path="url(#clip0)">
<path d="M19.7991 8.83722L10.9664 1.5579C10.8025 1.42264 10.5729 1.39395 10.3803 1.48413C10.1877 1.5743 10.0647 1.77103 10.0647 1.98417V5.82056C5.77745 5.97632 2.83047 7.48874 1.29756 10.321C-0.0222296 12.7638 -0.00993339 15.6575 0.00236275 17.5716C0.00236275 17.7273 0.00236275 17.8749 0.00236275 18.0142C0.00236275 18.2643 0.17041 18.4856 0.416333 18.5512C0.461419 18.5635 0.510603 18.5676 0.555689 18.5676C0.752427 18.5676 0.936869 18.4651 1.03524 18.2889C4.0273 13.0138 6.49063 12.7597 10.0606 12.7474V16.5715C10.0606 16.7846 10.1836 16.9814 10.3803 17.0715C10.577 17.1617 10.8025 17.133 10.9705 16.9978L19.7991 9.69385C19.9262 9.58728 20 9.43153 20 9.26758C20 9.10363 19.9262 8.94378 19.7991 8.83722ZM11.1714 15.3952V12.1941C11.1714 12.0465 11.114 11.9072 11.0074 11.8047C10.9049 11.7022 10.7615 11.6407 10.618 11.6407C8.38833 11.6407 6.67917 11.7022 5.01919 12.4769C3.58464 13.145 2.34273 14.2803 1.11721 16.0632C1.1664 14.4361 1.37953 12.4933 2.26895 10.8497C3.67891 8.24291 6.40865 6.95181 10.618 6.91492C10.9213 6.91082 11.1673 6.6649 11.1673 6.36159V3.1564L18.5736 9.26758L11.1714 15.3952Z" fill="black"/>
</g>
<defs>
<clipPath id="clip0">
<rect width="20" height="20" fill="white"/>
</clipPath>
</defs>
</svg>
