<svg width="23" height="23" viewBox="0 0 23 23" fill="none" xmlns="http://www.w3.org/2000/svg">
<g clip-path="url(#clip0)">
<path d="M22.6604 7.15165C22.5661 7.09977 20.359 5.95378 16.6805 5.26053L16.5391 4.65688C16.1712 3.07701 14.78 1.96875 13.153 1.96875H9.84704C8.22473 1.96875 6.8335 3.0723 6.46094 4.65688L6.31946 5.26053C2.64097 5.94907 0.433873 7.09977 0.339553 7.15165C0.132048 7.26012 0 7.47705 0 7.71285V15.2113C0 18.2154 2.4429 20.663 5.45171 20.663C5.80541 20.663 6.08837 20.3801 6.08837 20.0264C6.08837 19.6727 5.80541 19.3897 5.45171 19.3897C3.1503 19.3897 1.27332 17.5174 1.27332 15.2113V8.11372C2.03732 7.76473 4.05577 6.93943 6.95612 6.43953C7.20607 6.39709 7.40886 6.20373 7.46545 5.9585L7.70125 4.94455C7.93705 3.94476 8.81423 3.24207 9.84704 3.24207H13.153C14.1811 3.24207 15.0629 3.94004 15.2987 4.94455L15.5345 5.9585C15.5911 6.20845 15.7939 6.39709 16.0439 6.43953C18.9348 6.93943 20.958 7.76473 21.7267 8.11372V15.2113C21.7267 17.5127 19.8544 19.3897 17.5483 19.3897C17.1946 19.3897 16.9116 19.6727 16.9116 20.0264C16.9116 20.3801 17.1946 20.663 17.5483 20.663C20.5524 20.663 23 18.2201 23 15.2113V7.71285C23 7.47705 22.8727 7.26012 22.6604 7.15165Z" fill="#858585"/>
<path d="M2.08457 5.84991C2.15059 5.84991 2.21662 5.84048 2.28264 5.8169C2.95231 5.59524 3.655 5.39717 4.37183 5.22739C4.7161 5.14722 4.92361 4.80295 4.84343 4.4634C4.76326 4.11913 4.41899 3.91163 4.07944 3.9918C3.32959 4.17101 2.58918 4.37851 1.88178 4.6096C1.54694 4.71806 1.36773 5.0812 1.4762 5.41132C1.57052 5.68013 1.82047 5.84991 2.08457 5.84991Z" fill="#858585"/>
<path d="M11.5023 6.36865C7.46065 6.36865 4.17358 9.65571 4.17358 13.6973C4.17358 17.739 7.46065 21.0307 11.5023 21.0307C15.5439 21.0307 18.831 17.7437 18.831 13.702C18.831 9.66043 15.5439 6.36865 11.5023 6.36865ZM11.5023 19.7574C8.16333 19.7574 5.44691 17.041 5.44691 13.702C5.44691 10.3631 8.16333 7.64198 11.5023 7.64198C14.8412 7.64198 17.5576 10.3584 17.5576 13.6973C17.5576 17.0363 14.8412 19.7574 11.5023 19.7574Z" fill="#858585"/>
</g>
<defs>
<clipPath id="clip0">
<rect width="23" height="23" fill="white"/>
</clipPath>
</defs>
</svg>
