<svg width="18" height="18" viewBox="0 0 18 18" fill="none" xmlns="http://www.w3.org/2000/svg">
<path d="M16.6747 6.58033H16.4126C15.977 5.46179 15.246 4.44662 14.2715 3.62341C14.1349 3.12874 14.2383 2.59347 14.589 2.03974C14.7846 1.72596 14.7957 1.34942 14.6185 1.02826C14.4413 0.710788 14.109 0.515137 13.751 0.515137C13.7104 0.515137 13.6661 0.518828 13.6255 0.52252C12.278 0.688639 11.4585 1.29036 10.9676 1.86255C10.3769 1.67797 9.62753 1.6226 9.48725 1.61152C9.14024 1.57461 8.78586 1.55246 8.43516 1.55246C6.1944 1.55246 4.08653 2.3203 2.49548 3.70831C0.885969 5.11479 0 6.99378 0 8.99459C0 9.51141 0.0590646 10.0282 0.180885 10.534C0.184577 10.545 0.184577 10.5561 0.188268 10.5635L0.19196 10.582C0.317472 11.0914 0.50574 11.5897 0.74569 12.066C1.14807 12.9298 1.62797 13.6533 2.16693 14.2107C2.91262 14.9786 3.04183 15.9531 3.06028 16.3444V16.5364C3.06028 16.5438 3.06028 16.5549 3.06028 16.5622C3.06028 16.6028 3.06397 16.6398 3.07136 16.6767C3.1415 17.1344 3.53649 17.4851 4.00901 17.4851H6.7592C7.2834 17.4851 7.70793 17.0606 7.70793 16.5364V16.4109C8.09923 16.4404 8.49422 16.4441 8.88922 16.4257V16.5364C8.88922 17.0606 9.31374 17.4851 9.83794 17.4851H12.5881C13.1123 17.4851 13.5369 17.0606 13.5369 16.5364V15.8645C13.5406 15.7095 13.5996 14.9749 14.2973 14.3399C14.3305 14.3104 14.3675 14.2809 14.4007 14.2513C14.4044 14.2476 14.4044 14.2476 14.4081 14.244C14.4191 14.2366 14.4265 14.2292 14.4339 14.2181C15.3531 13.3949 16.0471 12.3908 16.4495 11.2944H16.6673C17.4019 11.2944 17.9999 10.6964 17.9999 9.96177V7.90559C18.0073 7.17467 17.4093 6.58033 16.6747 6.58033ZM13.751 1.50816C13.7473 1.50816 13.7473 1.50816 13.751 1.50816C13.7473 1.50447 13.7473 1.50447 13.7473 1.50447C13.7473 1.50447 13.7473 1.50447 13.7473 1.50816L13.6845 1.01349L13.751 1.50816ZM17.0106 9.96547C17.0106 10.15 16.8592 10.3014 16.6747 10.3014H16.0988C15.881 10.3014 15.6853 10.4454 15.6226 10.6521C15.2977 11.7153 14.6517 12.6972 13.762 13.4909C13.7584 13.4946 13.7584 13.4946 13.7547 13.4983L13.751 13.502C13.7177 13.5315 13.6845 13.561 13.6513 13.5906C13.6476 13.5942 13.6439 13.5979 13.6402 13.6016C12.6546 14.495 12.5549 15.5471 12.5475 15.8498C12.5475 15.8535 12.5475 15.8572 12.5475 15.8608V16.4921H9.88962V15.8904C9.88962 15.7501 9.83056 15.6135 9.72351 15.5212C9.62014 15.4252 9.47617 15.3809 9.33959 15.3957C9.03688 15.4289 8.73417 15.4437 8.43516 15.4437C8.04755 15.4437 7.65994 15.4179 7.27971 15.3662C7.13574 15.3477 6.99177 15.392 6.88471 15.4843C6.77766 15.5803 6.7149 15.7169 6.7149 15.8608V16.4921H4.06069V16.3334C4.06069 16.326 4.06069 16.3186 4.06069 16.3112C4.03854 15.8129 3.8798 14.5393 2.88678 13.5167C2.42165 13.0368 2.0045 12.4056 1.65012 11.6377C1.64643 11.6303 1.64273 11.6267 1.64273 11.6193C1.43232 11.2095 1.26989 10.7813 1.16283 10.342C1.16283 10.3383 1.15914 10.3346 1.15914 10.3309C1.15914 10.3272 1.15914 10.3272 1.15914 10.3235C1.05578 9.88795 1.00041 9.44127 1.00041 8.99828C1.00041 5.44334 4.33755 2.55286 8.43885 2.55286C8.75632 2.55286 9.07749 2.57132 9.39127 2.60455C9.39865 2.60455 9.40603 2.60455 9.41342 2.60824C9.82687 2.63408 10.5947 2.74113 10.9011 2.90725C11.1263 3.02907 11.4068 2.95893 11.5508 2.74852C11.872 2.27231 12.5143 1.67059 13.7473 1.51923C13.2489 2.31661 13.1013 3.14351 13.3191 3.91504C13.3228 4.05901 13.3929 4.1956 13.5036 4.28789C14.5004 5.09264 15.2239 6.1152 15.593 7.24111C15.6595 7.44415 15.8515 7.58443 16.0656 7.58443C16.0693 7.58443 16.0693 7.58443 16.0729 7.58443H16.6784C16.8629 7.58443 17.0143 7.73578 17.0143 7.92036V9.96547H17.0106Z" fill="#178776"/>
</svg>
