<svg width="18" height="18" viewBox="0 0 18 18" fill="none" xmlns="http://www.w3.org/2000/svg">
<g clip-path="url(#clip0)">
<path d="M17.0786 7.11144L15.8152 6.89711C15.6836 6.47221 15.5144 6.06235 15.3076 5.6713L16.0521 4.62973C16.368 4.18603 16.3191 3.58065 15.9318 3.19711L14.8113 2.07658C14.6007 1.86602 14.3224 1.74945 14.0254 1.74945C13.7923 1.74945 13.5704 1.82089 13.3824 1.95626L12.3371 2.70077C11.931 2.48644 11.5061 2.30971 11.0661 2.17811L10.8556 0.929736C10.7653 0.392033 10.3028 0.000976562 9.75761 0.000976562H8.17459C7.62936 0.000976562 7.16686 0.392033 7.07662 0.929736L6.85853 2.20819C6.43739 2.3398 6.02754 2.51276 5.63648 2.72333L4.60244 1.97882C4.41443 1.84345 4.18882 1.77201 3.95569 1.77201C3.65864 1.77201 3.37662 1.88858 3.16981 2.09915L2.04553 3.21967C1.66199 3.60321 1.60935 4.2086 1.9252 4.65229L2.67723 5.7089C2.47042 6.10372 2.30498 6.51357 2.17713 6.93847L0.92876 7.14904C0.391057 7.23928 0 7.70178 0 8.24701V9.83003C0 10.3753 0.391057 10.8378 0.92876 10.928L2.20721 11.1461C2.33882 11.5672 2.51179 11.9771 2.72236 12.3681L1.9816 13.3984C1.66575 13.8421 1.71463 14.4475 2.10193 14.831L3.22246 15.9516C3.43303 16.1621 3.71128 16.2787 4.00833 16.2787C4.24146 16.2787 4.46331 16.2073 4.65132 16.0719L5.70792 15.3199C6.0877 15.5192 6.48628 15.6808 6.89613 15.8087L7.1067 17.0721C7.19695 17.6098 7.65945 18.0009 8.20467 18.0009H9.79146C10.3367 18.0009 10.7992 17.6098 10.8894 17.0721L11.1038 15.8087C11.5286 15.6771 11.9385 15.5079 12.3296 15.3011L13.3711 16.0456C13.5591 16.1809 13.7847 16.2524 14.0179 16.2524C14.3149 16.2524 14.5932 16.1358 14.8037 15.9253L15.9243 14.8047C16.3078 14.4212 16.3605 13.8158 16.0446 13.3721L15.3001 12.3268C15.5069 11.932 15.6799 11.5221 15.8077 11.101L17.0711 10.8904C17.6088 10.8002 17.9999 10.3377 17.9999 9.79243V8.2094C18.0074 7.66418 17.6163 7.20168 17.0786 7.11144ZM16.9922 9.79243C16.9922 9.84131 16.9583 9.88268 16.9094 9.8902L15.3302 10.1534C15.1309 10.1872 14.973 10.3339 14.9241 10.5257C14.7812 11.0784 14.5631 11.6086 14.2698 12.1012C14.1683 12.2741 14.1758 12.4885 14.2924 12.6539L15.2211 13.9624C15.2474 14.0001 15.2437 14.0565 15.2098 14.0903L14.0893 15.2108C14.063 15.2371 14.0367 15.2409 14.0179 15.2409C13.9953 15.2409 13.9765 15.2334 13.9615 15.2221L12.6567 14.2933C12.495 14.1768 12.2769 14.1693 12.104 14.2708C11.6114 14.5641 11.0812 14.7822 10.5284 14.9251C10.3329 14.9739 10.1863 15.1356 10.1562 15.3311L9.88922 16.9104C9.8817 16.9593 9.84034 16.9931 9.79146 16.9931H8.20843C8.15955 16.9931 8.11819 16.9593 8.11066 16.9104L7.84745 15.3311C7.81361 15.1319 7.66697 14.9739 7.4752 14.9251C6.93749 14.7859 6.41859 14.5716 5.93353 14.2933C5.85457 14.2482 5.76433 14.2257 5.67784 14.2257C5.57632 14.2257 5.47103 14.2557 5.38455 14.3197L4.06849 15.2559C4.04969 15.2672 4.03089 15.2747 4.01209 15.2747C3.99705 15.2747 3.96697 15.271 3.94065 15.2447L2.82012 14.1241C2.78628 14.0903 2.78252 14.0377 2.80884 13.9963L3.73384 12.699C3.8504 12.5336 3.85792 12.3155 3.7564 12.1425C3.46311 11.6537 3.2375 11.1235 3.09461 10.5708C3.04197 10.379 2.88404 10.2324 2.68851 10.1985L1.09797 9.9278C1.04908 9.92028 1.01524 9.87892 1.01524 9.83003V8.24701C1.01524 8.19812 1.04908 8.15676 1.09797 8.14924L2.66595 7.88603C2.86524 7.85219 3.02693 7.70554 3.07581 7.51002C3.21494 6.95727 3.42927 6.42333 3.7188 5.93075C3.82032 5.75778 3.80904 5.54345 3.69248 5.38176L2.7562 4.06571C2.72988 4.02811 2.73364 3.97171 2.76748 3.93786L3.88801 2.81734C3.91433 2.79102 3.94065 2.78725 3.95945 2.78725C3.98201 2.78725 4.00081 2.79478 4.01585 2.80606L5.31311 3.73106C5.47855 3.84762 5.69664 3.85514 5.86961 3.75362C6.35843 3.46032 6.88861 3.23471 7.44136 3.09183C7.63312 3.03919 7.77977 2.88126 7.81361 2.68573L8.08434 1.09518C8.09186 1.0463 8.13323 1.01246 8.18211 1.01246H9.76514C9.81402 1.01246 9.85538 1.0463 9.8629 1.09518L10.1261 2.66317C10.16 2.86246 10.3066 3.02414 10.5021 3.07303C11.0699 3.21591 11.6114 3.43776 12.1152 3.73482C12.2882 3.83634 12.5025 3.82882 12.668 3.71225L13.9652 2.77973C13.984 2.76845 14.0028 2.76093 14.0216 2.76093C14.0367 2.76093 14.0668 2.76469 14.0931 2.79101L15.2136 3.91154C15.2474 3.94538 15.2512 3.99803 15.2249 4.03939L14.2961 5.34416C14.1796 5.50585 14.172 5.72394 14.2736 5.89691C14.5669 6.38949 14.7849 6.91967 14.9278 7.47241C14.9767 7.66794 15.1384 7.81459 15.3339 7.84467L16.9132 8.11164C16.9621 8.11916 16.9959 8.16052 16.9959 8.2094V9.79243H16.9922Z" fill="#178776"/>
<path d="M9.00192 5.11377C6.85863 5.11377 5.11768 6.85472 5.11768 8.99802C5.11768 11.1413 6.85863 12.8823 9.00192 12.8823C11.1452 12.8823 12.8862 11.1413 12.8862 8.99802C12.8862 6.85472 11.1452 5.11377 9.00192 5.11377ZM9.00192 11.867C7.41889 11.867 6.13292 10.581 6.13292 8.99802C6.13292 7.41499 7.41889 6.12901 9.00192 6.12901C10.5849 6.12901 11.8709 7.41499 11.8709 8.99802C11.8709 10.581 10.5849 11.867 9.00192 11.867Z" fill="#178776"/>
</g>
<defs>
<clipPath id="clip0">
<rect width="18" height="18" fill="white"/>
</clipPath>
</defs>
</svg>
