<svg width="18" height="18" viewBox="0 0 18 18" fill="none" xmlns="http://www.w3.org/2000/svg">
<g clip-path="url(#clip0)">
<path d="M17.9753 6.90152C17.9162 6.72049 17.761 6.59119 17.5726 6.56163L11.9571 5.76364L9.43014 0.683819C9.34517 0.513876 9.17153 0.406738 8.98312 0.406738C8.7947 0.406738 8.62106 0.513876 8.53609 0.687514L6.04236 5.78211L0.42685 6.61705C0.238435 6.6466 0.0832697 6.77591 0.0241591 6.95693C-0.0349516 7.13796 0.0167702 7.33746 0.153464 7.46676L4.2284 11.4161L3.28633 17.0094C3.25308 17.1979 3.33066 17.3863 3.48583 17.4971C3.5708 17.5599 3.67424 17.5932 3.77768 17.5932C3.85896 17.5932 3.93654 17.5747 4.01043 17.534L9.02375 14.8778L14.0519 17.5045C14.1257 17.5414 14.2033 17.5599 14.2809 17.5599C14.5543 17.5599 14.7797 17.3345 14.7797 17.0612C14.7797 17.0205 14.776 16.9836 14.7649 16.9466L13.7932 11.3865L17.8423 7.41504C17.9864 7.28204 18.0344 7.08255 17.9753 6.90152ZM12.914 10.8582C12.7958 10.9728 12.744 11.139 12.7736 11.3016L13.6196 16.1523L9.25281 13.8729C9.10872 13.7953 8.93509 13.799 8.78731 13.8729L4.43529 16.1782L5.25176 11.32C5.27762 11.1575 5.22589 10.9949 5.10767 10.8804L1.57581 7.45199L6.44875 6.72788C6.6113 6.70202 6.75169 6.60227 6.82188 6.45449L8.98681 2.03228L11.1813 6.44341C11.2552 6.59119 11.3956 6.69094 11.5581 6.7168L16.4347 7.41135L12.914 10.8582Z" fill="#178776"/>
</g>
<defs>
<clipPath id="clip0">
<rect width="18" height="18" fill="white"/>
</clipPath>
</defs>
</svg>
